<mxfile host="app.diagrams.net" modified="2023-09-22T12:42:33.441Z" agent="Mozilla/5.0 (X11; Linux x86_64) AppleWebKit/537.36 (KHTML, like Gecko) Chrome/111.0.0.0 Safari/537.36" etag="byLMvu9LlK7UeF6i4V1s" version="21.8.0" type="device">
  <diagram name="Page-1" id="n1tb5DwwX4c0qrLfF6wE">
    <mxGraphModel dx="3354" dy="1831" grid="1" gridSize="10" guides="1" tooltips="1" connect="1" arrows="1" fold="1" page="1" pageScale="1" pageWidth="827" pageHeight="1169" math="0" shadow="0">
      <root>
        <mxCell id="0" />
        <mxCell id="1" parent="0" />
        <mxCell id="McNahyriQ4-GgeykA9PT-1" value="" style="html=1;overflow=block;blockSpacing=1;whiteSpace=wrap;shape=image;fontSize=13;spacing=0;strokeColor=none;strokeOpacity=100;strokeWidth=0;image=https://images.lucid.app/images/bed074a4-9dbb-4d75-9538-f6524e96d160/content;imageAspect=0;lucidId=hf5dB6ejQqSy;" vertex="1" parent="1">
          <mxGeometry x="1080" y="113" width="197" height="263" as="geometry" />
        </mxCell>
        <mxCell id="McNahyriQ4-GgeykA9PT-2" value="" style="html=1;overflow=block;blockSpacing=1;whiteSpace=wrap;shape=image;fontSize=13;spacing=0;strokeColor=none;strokeOpacity=100;strokeWidth=0;image=https://images.lucid.app/images/7f3c3266-3d4a-47a6-8c49-92fcb09498e0/content;imageAspect=0;lucidId=nl5dwO~jeXCH;" vertex="1" parent="1">
          <mxGeometry x="30" y="150" width="587" height="900" as="geometry" />
        </mxCell>
        <mxCell id="McNahyriQ4-GgeykA9PT-3" value="" style="html=1;overflow=block;blockSpacing=1;whiteSpace=wrap;shape=image;fontSize=13;spacing=0;strokeColor=none;strokeOpacity=100;rotation=-90;strokeWidth=0;image=https://images.lucid.app/images/8c6b550b-db24-4c71-b104-6a76bc469460/content;imageAspect=0;lucidId=OE5dDay1kAKK;" vertex="1" parent="1">
          <mxGeometry x="706" y="644" width="421" height="273" as="geometry" />
        </mxCell>
        <mxCell id="McNahyriQ4-GgeykA9PT-4" value="A" style="html=1;overflow=block;blockSpacing=1;whiteSpace=wrap;ellipse;fontSize=13;fontColor=#333333;align=center;spacing=3.8;strokeColor=#333333;strokeOpacity=100;fillOpacity=100;rounded=1;absoluteArcSize=1;arcSize=12;fillColor=#ffffff;strokeWidth=0.8;lucidId=ZB6d4dOFchW.;" vertex="1" parent="1">
          <mxGeometry x="1365" y="420" width="60" height="60" as="geometry" />
        </mxCell>
        <mxCell id="McNahyriQ4-GgeykA9PT-5" value="" style="html=1;overflow=block;blockSpacing=1;whiteSpace=wrap;shape=mxgraph.flowchart.or;fontSize=13;spacing=3.8;strokeColor=#333333;strokeOpacity=100;fillOpacity=100;rounded=1;absoluteArcSize=1;arcSize=12;fillColor=#ffffff;strokeWidth=0.8;lucidId=5E6dmz2Ref-e;" vertex="1" parent="1">
          <mxGeometry x="1230" y="525" width="60" height="60" as="geometry" />
        </mxCell>
        <mxCell id="McNahyriQ4-GgeykA9PT-6" value="" style="html=1;overflow=block;blockSpacing=1;whiteSpace=wrap;shape=mxgraph.flowchart.or;fontSize=13;spacing=3.8;strokeColor=#333333;strokeOpacity=100;fillOpacity=100;rounded=1;absoluteArcSize=1;arcSize=12;fillColor=#ffffff;strokeWidth=0.8;lucidId=7E6dwyh5Py6m;" vertex="1" parent="1">
          <mxGeometry x="1920" y="525" width="60" height="60" as="geometry" />
        </mxCell>
        <mxCell id="McNahyriQ4-GgeykA9PT-7" value="" style="html=1;jettySize=18;whiteSpace=wrap;fontSize=13;strokeColor=#333333;strokeOpacity=100;strokeWidth=0.8;rounded=1;arcSize=24;edgeStyle=orthogonalEdgeStyle;startArrow=none;endArrow=none;exitX=-0.006;exitY=0.5;exitPerimeter=0;entryX=1.006;entryY=0.5;entryPerimeter=0;lucidId=fF6dAehEAKY4;" edge="1" parent="1" source="McNahyriQ4-GgeykA9PT-6" target="McNahyriQ4-GgeykA9PT-5">
          <mxGeometry width="100" height="100" relative="1" as="geometry">
            <Array as="points">
              <mxPoint x="1890" y="555" />
              <mxPoint x="1890" y="540" />
              <mxPoint x="1306" y="540" />
              <mxPoint x="1306" y="555" />
            </Array>
          </mxGeometry>
        </mxCell>
        <mxCell id="McNahyriQ4-GgeykA9PT-8" value="" style="html=1;jettySize=18;whiteSpace=wrap;fontSize=13;strokeColor=#333333;strokeOpacity=100;strokeWidth=0.8;rounded=1;arcSize=24;edgeStyle=orthogonalEdgeStyle;startArrow=none;endArrow=none;exitX=-0.006;exitY=0.5;exitPerimeter=0;entryX=0.004;entryY=0.652;entryPerimeter=0;lucidId=UF6dAUGhuPVI;" edge="1" parent="1" source="McNahyriQ4-GgeykA9PT-5" target="McNahyriQ4-GgeykA9PT-1">
          <mxGeometry width="100" height="100" relative="1" as="geometry">
            <Array as="points">
              <mxPoint x="995" y="555" />
              <mxPoint x="995" y="284" />
            </Array>
          </mxGeometry>
        </mxCell>
        <mxCell id="McNahyriQ4-GgeykA9PT-9" value="" style="html=1;jettySize=18;whiteSpace=wrap;fontSize=13;strokeColor=#333333;strokeOpacity=100;strokeWidth=0.8;rounded=1;arcSize=24;edgeStyle=orthogonalEdgeStyle;jumpStyle=arc;startArrow=none;endArrow=none;exitX=1.006;exitY=0.5;exitPerimeter=0;entryX=0.99;entryY=0.648;entryPerimeter=0;lucidId=JG6do-yaE5Rw;" edge="1" parent="1" source="McNahyriQ4-GgeykA9PT-6" target="McNahyriQ4-GgeykA9PT-1">
          <mxGeometry width="100" height="100" relative="1" as="geometry">
            <Array as="points">
              <mxPoint x="1988" y="555" />
              <mxPoint x="1988" y="283" />
            </Array>
          </mxGeometry>
        </mxCell>
        <mxCell id="McNahyriQ4-GgeykA9PT-10" value="" style="html=1;jettySize=18;whiteSpace=wrap;fontSize=13;strokeColor=#333333;strokeOpacity=100;strokeWidth=7.5;rounded=1;arcSize=24;edgeStyle=orthogonalEdgeStyle;startArrow=none;endArrow=none;exitX=0.5;exitY=0.969;exitPerimeter=0;entryX=0.643;entryY=0.847;entryPerimeter=0;lucidId=eI6dEGoXGqXm;" edge="1" parent="1" source="McNahyriQ4-GgeykA9PT-1" target="McNahyriQ4-GgeykA9PT-2">
          <mxGeometry width="100" height="100" relative="1" as="geometry">
            <Array as="points">
              <mxPoint x="1179" y="1080" />
              <mxPoint x="407" y="1080" />
            </Array>
          </mxGeometry>
        </mxCell>
        <mxCell id="McNahyriQ4-GgeykA9PT-11" value="" style="html=1;overflow=block;blockSpacing=1;whiteSpace=wrap;shape=mxgraph.flowchart.or;fontSize=13;spacing=3.8;strokeColor=#333333;strokeOpacity=100;fillOpacity=100;rounded=1;absoluteArcSize=1;arcSize=12;fillColor=#ffffff;strokeWidth=0.8;lucidId=MY6daad3LOxE;" vertex="1" parent="1">
          <mxGeometry x="1335" y="915" width="60" height="60" as="geometry" />
        </mxCell>
        <mxCell id="McNahyriQ4-GgeykA9PT-12" value="" style="html=1;overflow=block;blockSpacing=1;whiteSpace=wrap;shape=mxgraph.flowchart.or;fontSize=13;spacing=3.8;strokeColor=#333333;strokeOpacity=100;fillOpacity=100;rounded=1;absoluteArcSize=1;arcSize=12;fillColor=#ffffff;strokeWidth=0.8;lucidId=PY6dWfYCuP5F;" vertex="1" parent="1">
          <mxGeometry x="1455" y="915" width="60" height="60" as="geometry" />
        </mxCell>
        <mxCell id="McNahyriQ4-GgeykA9PT-13" value="" style="html=1;overflow=block;blockSpacing=1;whiteSpace=wrap;shape=mxgraph.flowchart.or;fontSize=13;spacing=3.8;strokeColor=#333333;strokeOpacity=100;fillOpacity=100;rounded=1;absoluteArcSize=1;arcSize=12;fillColor=#ffffff;strokeWidth=0.8;lucidId=5Y6dTLio_TQQ;" vertex="1" parent="1">
          <mxGeometry x="1575" y="915" width="60" height="60" as="geometry" />
        </mxCell>
        <mxCell id="McNahyriQ4-GgeykA9PT-14" value="" style="html=1;overflow=block;blockSpacing=1;whiteSpace=wrap;shape=mxgraph.flowchart.or;fontSize=13;spacing=3.8;strokeColor=#333333;strokeOpacity=100;fillOpacity=100;rounded=1;absoluteArcSize=1;arcSize=12;fillColor=#ffffff;strokeWidth=0.8;lucidId=.Y6dqiP-au00;" vertex="1" parent="1">
          <mxGeometry x="1695" y="915" width="60" height="60" as="geometry" />
        </mxCell>
        <mxCell id="McNahyriQ4-GgeykA9PT-15" value="" style="html=1;overflow=block;blockSpacing=1;whiteSpace=wrap;shape=mxgraph.flowchart.or;fontSize=13;spacing=3.8;strokeColor=#333333;strokeOpacity=100;fillOpacity=100;rounded=1;absoluteArcSize=1;arcSize=12;fillColor=#ffffff;strokeWidth=0.8;lucidId=bZ6d9ansTD38;" vertex="1" parent="1">
          <mxGeometry x="1815" y="915" width="60" height="60" as="geometry" />
        </mxCell>
        <mxCell id="McNahyriQ4-GgeykA9PT-16" value="" style="html=1;jettySize=18;whiteSpace=wrap;fontSize=13;strokeColor=#333333;strokeOpacity=100;strokeWidth=0.8;rounded=1;arcSize=24;edgeStyle=orthogonalEdgeStyle;startArrow=none;endArrow=none;exitX=0.562;exitY=0.994;exitPerimeter=0;entryX=0.5;entryY=1.006;entryPerimeter=0;lucidId=JZ6dCs-l_7d3;" edge="1" parent="1" source="McNahyriQ4-GgeykA9PT-3" target="McNahyriQ4-GgeykA9PT-14">
          <mxGeometry width="100" height="100" relative="1" as="geometry">
            <Array as="points">
              <mxPoint x="1104" y="814" />
              <mxPoint x="1104" y="1035" />
              <mxPoint x="1725" y="1035" />
            </Array>
          </mxGeometry>
        </mxCell>
        <mxCell id="McNahyriQ4-GgeykA9PT-17" value="" style="html=1;jettySize=18;whiteSpace=wrap;fontSize=13;strokeColor=#333333;strokeOpacity=100;strokeWidth=0.8;rounded=1;arcSize=24;edgeStyle=orthogonalEdgeStyle;startArrow=none;endArrow=none;exitX=0.5;exitY=0.986;exitPerimeter=0;entryX=0.5;entryY=1.006;entryPerimeter=0;lucidId=PZ6dGuhpv9J1;" edge="1" parent="1" source="McNahyriQ4-GgeykA9PT-3" target="McNahyriQ4-GgeykA9PT-15">
          <mxGeometry width="100" height="100" relative="1" as="geometry">
            <Array as="points">
              <mxPoint x="1096" y="840" />
              <mxPoint x="1096" y="1050" />
              <mxPoint x="1845" y="1050" />
            </Array>
          </mxGeometry>
        </mxCell>
        <mxCell id="McNahyriQ4-GgeykA9PT-18" value="" style="html=1;jettySize=18;whiteSpace=wrap;fontSize=13;strokeColor=#333333;strokeOpacity=100;strokeWidth=0.8;rounded=1;arcSize=24;edgeStyle=orthogonalEdgeStyle;startArrow=none;endArrow=none;exitX=0.636;exitY=0.994;exitPerimeter=0;entryX=0.5;entryY=1.006;entryPerimeter=0;lucidId=5Z6d4qsg_pxl;" edge="1" parent="1" source="McNahyriQ4-GgeykA9PT-3" target="McNahyriQ4-GgeykA9PT-13">
          <mxGeometry width="100" height="100" relative="1" as="geometry">
            <Array as="points">
              <mxPoint x="1111" y="783" />
              <mxPoint x="1111" y="1020" />
              <mxPoint x="1605" y="1020" />
            </Array>
          </mxGeometry>
        </mxCell>
        <mxCell id="McNahyriQ4-GgeykA9PT-19" value="" style="html=1;jettySize=18;whiteSpace=wrap;fontSize=13;strokeColor=#333333;strokeOpacity=100;strokeWidth=0.8;rounded=1;arcSize=24;edgeStyle=orthogonalEdgeStyle;startArrow=none;endArrow=none;exitX=0.719;exitY=0.994;exitPerimeter=0;entryX=0.5;entryY=1.006;entryPerimeter=0;lucidId=C06dpMjZOqG~;" edge="1" parent="1" source="McNahyriQ4-GgeykA9PT-3" target="McNahyriQ4-GgeykA9PT-12">
          <mxGeometry width="100" height="100" relative="1" as="geometry">
            <Array as="points">
              <mxPoint x="1119" y="748" />
              <mxPoint x="1119" y="1005" />
              <mxPoint x="1485" y="1005" />
            </Array>
          </mxGeometry>
        </mxCell>
        <mxCell id="McNahyriQ4-GgeykA9PT-20" value="" style="html=1;jettySize=18;whiteSpace=wrap;fontSize=13;strokeColor=#333333;strokeOpacity=100;strokeWidth=0.8;rounded=1;arcSize=24;edgeStyle=orthogonalEdgeStyle;startArrow=none;endArrow=none;exitX=0.793;exitY=0.994;exitPerimeter=0;entryX=0.5;entryY=1.006;entryPerimeter=0;lucidId=T06deShMGpQG;" edge="1" parent="1" source="McNahyriQ4-GgeykA9PT-3" target="McNahyriQ4-GgeykA9PT-11">
          <mxGeometry width="100" height="100" relative="1" as="geometry">
            <Array as="points">
              <mxPoint x="1126" y="716" />
              <mxPoint x="1126" y="990" />
              <mxPoint x="1365" y="990" />
            </Array>
          </mxGeometry>
        </mxCell>
        <mxCell id="McNahyriQ4-GgeykA9PT-21" value="" style="html=1;jettySize=18;whiteSpace=wrap;fontSize=13;strokeColor=#333333;strokeOpacity=100;strokeWidth=0.8;rounded=1;arcSize=24;edgeStyle=orthogonalEdgeStyle;startArrow=none;endArrow=none;exitX=0.86;exitY=0.726;exitPerimeter=0;entryX=1;entryY=0.428;entryPerimeter=0;lucidId=r36dML-srnnD;" edge="1" parent="1" source="McNahyriQ4-GgeykA9PT-3" target="McNahyriQ4-GgeykA9PT-2">
          <mxGeometry width="100" height="100" relative="1" as="geometry">
            <Array as="points" />
          </mxGeometry>
        </mxCell>
        <mxCell id="McNahyriQ4-GgeykA9PT-22" value="" style="html=1;jettySize=18;whiteSpace=wrap;fontSize=13;strokeColor=#333333;strokeOpacity=100;strokeWidth=0.8;rounded=1;arcSize=24;edgeStyle=orthogonalEdgeStyle;jumpStyle=arc;startArrow=none;endArrow=none;exitX=0.861;exitY=0.55;exitPerimeter=0;entryX=1;entryY=0.101;entryPerimeter=0;lucidId=n46du569mdy1;" edge="1" parent="1" source="McNahyriQ4-GgeykA9PT-3" target="McNahyriQ4-GgeykA9PT-2">
          <mxGeometry width="100" height="100" relative="1" as="geometry">
            <Array as="points">
              <mxPoint x="930" y="449" />
              <mxPoint x="750" y="449" />
              <mxPoint x="750" y="241" />
            </Array>
          </mxGeometry>
        </mxCell>
        <mxCell id="McNahyriQ4-GgeykA9PT-23" value="" style="html=1;jettySize=18;whiteSpace=wrap;fontSize=13;strokeColor=#333333;strokeOpacity=100;strokeWidth=0.8;rounded=1;arcSize=24;edgeStyle=orthogonalEdgeStyle;jumpStyle=arc;startArrow=none;endArrow=none;exitX=0.861;exitY=0.471;exitPerimeter=0;entryX=1;entryY=0.149;entryPerimeter=0;lucidId=Q46duXHWQ59E;" edge="1" parent="1" source="McNahyriQ4-GgeykA9PT-3" target="McNahyriQ4-GgeykA9PT-2">
          <mxGeometry width="100" height="100" relative="1" as="geometry">
            <Array as="points">
              <mxPoint x="909" y="479" />
              <mxPoint x="720" y="479" />
              <mxPoint x="720" y="284" />
            </Array>
          </mxGeometry>
        </mxCell>
        <mxCell id="McNahyriQ4-GgeykA9PT-24" value="" style="html=1;jettySize=18;whiteSpace=wrap;fontSize=13;strokeColor=#333333;strokeOpacity=100;strokeWidth=0.8;rounded=1;arcSize=24;edgeStyle=orthogonalEdgeStyle;jumpStyle=arc;startArrow=none;endArrow=none;exitX=0.86;exitY=0.634;exitPerimeter=0;entryX=1;entryY=0.17;entryPerimeter=0;lucidId=S56d._wYXgON;" edge="1" parent="1" source="McNahyriQ4-GgeykA9PT-3" target="McNahyriQ4-GgeykA9PT-2">
          <mxGeometry width="100" height="100" relative="1" as="geometry">
            <Array as="points">
              <mxPoint x="953" y="509" />
              <mxPoint x="690" y="509" />
              <mxPoint x="690" y="303" />
            </Array>
          </mxGeometry>
        </mxCell>
        <mxCell id="McNahyriQ4-GgeykA9PT-25" value="" style="html=1;overflow=block;blockSpacing=1;whiteSpace=wrap;shape=image;fontSize=13;spacing=0;strokeColor=none;strokeOpacity=100;strokeWidth=0;image=https://images.lucid.app/images/003d643b-bfb8-4f06-8767-e7ee696ddf8a/content;imageAspect=0;lucidId=KCrjHkqFfHce;" vertex="1" parent="1">
          <mxGeometry x="1365" y="549" width="480" height="281" as="geometry" />
        </mxCell>
        <mxCell id="McNahyriQ4-GgeykA9PT-26" value="" style="html=1;jettySize=18;whiteSpace=wrap;fontSize=13;strokeColor=#333333;strokeOpacity=100;strokeWidth=7.5;rounded=1;arcSize=24;edgeStyle=orthogonalEdgeStyle;startArrow=none;endArrow=none;exitX=0;exitY=0.5;exitPerimeter=0;entryX=0.041;entryY=0.389;entryPerimeter=0;lucidId=SDrjbYCeXJmb;" edge="1" parent="1" source="McNahyriQ4-GgeykA9PT-25" target="McNahyriQ4-GgeykA9PT-2">
          <mxGeometry width="100" height="100" relative="1" as="geometry">
            <Array as="points">
              <mxPoint x="1208" y="690" />
              <mxPoint x="1208" y="1095" />
              <mxPoint x="24" y="1095" />
              <mxPoint x="24" y="500" />
            </Array>
          </mxGeometry>
        </mxCell>
        <mxCell id="McNahyriQ4-GgeykA9PT-27" value="" style="html=1;jettySize=18;whiteSpace=wrap;fontSize=13;strokeColor=#333333;strokeOpacity=100;strokeWidth=0.8;rounded=1;arcSize=24;edgeStyle=orthogonalEdgeStyle;jumpStyle=arc;startArrow=none;endArrow=none;exitX=0.004;exitY=0.582;exitPerimeter=0;entryX=0.152;entryY=0.868;entryPerimeter=0;lucidId=Ho1wIyHttnME;" edge="1" parent="1" source="McNahyriQ4-GgeykA9PT-1" target="McNahyriQ4-GgeykA9PT-4">
          <mxGeometry width="100" height="100" relative="1" as="geometry">
            <Array as="points" />
          </mxGeometry>
        </mxCell>
        <mxCell id="McNahyriQ4-GgeykA9PT-28" value="" style="html=1;jettySize=18;whiteSpace=wrap;fontSize=13;strokeColor=#333333;strokeOpacity=100;strokeWidth=0.8;rounded=1;arcSize=24;edgeStyle=orthogonalEdgeStyle;jumpStyle=arc;startArrow=none;endArrow=none;exitX=0.004;exitY=0.498;exitPerimeter=0;entryX=-0.006;entryY=0.5;entryPerimeter=0;lucidId=xq1w3LIkYpQT;" edge="1" parent="1" source="McNahyriQ4-GgeykA9PT-1" target="McNahyriQ4-GgeykA9PT-4">
          <mxGeometry width="100" height="100" relative="1" as="geometry">
            <Array as="points">
              <mxPoint x="1028" y="243" />
              <mxPoint x="1028" y="450" />
            </Array>
          </mxGeometry>
        </mxCell>
        <mxCell id="McNahyriQ4-GgeykA9PT-29" value="" style="html=1;jettySize=18;whiteSpace=wrap;fontSize=13;strokeColor=#333333;strokeOpacity=100;strokeWidth=0.8;rounded=1;arcSize=24;edgeStyle=orthogonalEdgeStyle;jumpStyle=arc;startArrow=none;endArrow=none;exitX=0.99;exitY=0.575;exitPerimeter=0;entryX=0.11;entryY=0.178;entryPerimeter=0;lucidId=1t1wIq2Z.L4E;" edge="1" parent="1" source="McNahyriQ4-GgeykA9PT-1" target="McNahyriQ4-GgeykA9PT-4">
          <mxGeometry width="100" height="100" relative="1" as="geometry">
            <Array as="points" />
          </mxGeometry>
        </mxCell>
        <mxCell id="McNahyriQ4-GgeykA9PT-30" value="" style="html=1;jettySize=18;whiteSpace=wrap;fontSize=13;strokeColor=#333333;strokeOpacity=100;strokeWidth=0.8;rounded=1;arcSize=24;edgeStyle=orthogonalEdgeStyle;jumpStyle=arc;startArrow=none;endArrow=none;exitX=0.991;exitY=0.498;exitPerimeter=0;entryX=0.886;entryY=0.173;entryPerimeter=0;lucidId=fu1wR3_KvMAA;" edge="1" parent="1" source="McNahyriQ4-GgeykA9PT-1" target="McNahyriQ4-GgeykA9PT-4">
          <mxGeometry width="100" height="100" relative="1" as="geometry">
            <Array as="points">
              <mxPoint x="1440" y="243" />
              <mxPoint x="1440" y="430" />
            </Array>
          </mxGeometry>
        </mxCell>
        <mxCell id="McNahyriQ4-GgeykA9PT-31" value="" style="html=1;jettySize=18;whiteSpace=wrap;fontSize=13;strokeColor=#333333;strokeOpacity=100;strokeWidth=0.8;rounded=1;arcSize=24;edgeStyle=orthogonalEdgeStyle;jumpStyle=arc;startArrow=none;endArrow=none;exitX=0.991;exitY=0.426;exitPerimeter=0;entryX=1.006;entryY=0.5;entryPerimeter=0;lucidId=su1wMASo2t1X;" edge="1" parent="1" source="McNahyriQ4-GgeykA9PT-1" target="McNahyriQ4-GgeykA9PT-4">
          <mxGeometry width="100" height="100" relative="1" as="geometry">
            <Array as="points">
              <mxPoint x="1463" y="224" />
              <mxPoint x="1463" y="450" />
            </Array>
          </mxGeometry>
        </mxCell>
        <mxCell id="McNahyriQ4-GgeykA9PT-32" value="" style="html=1;jettySize=18;whiteSpace=wrap;fontSize=13;strokeColor=#333333;strokeOpacity=100;strokeWidth=0.8;rounded=1;arcSize=24;edgeStyle=orthogonalEdgeStyle;jumpStyle=arc;startArrow=none;endArrow=none;exitX=0.991;exitY=0.357;exitPerimeter=0;entryX=0.875;entryY=0.839;entryPerimeter=0;lucidId=Gu1w7t2T5ytD;" edge="1" parent="1" source="McNahyriQ4-GgeykA9PT-1" target="McNahyriQ4-GgeykA9PT-4">
          <mxGeometry width="100" height="100" relative="1" as="geometry">
            <Array as="points">
              <mxPoint x="1485" y="206" />
              <mxPoint x="1485" y="470" />
            </Array>
          </mxGeometry>
        </mxCell>
        <mxCell id="McNahyriQ4-GgeykA9PT-33" value="" style="html=1;jettySize=18;whiteSpace=wrap;fontSize=13;strokeColor=#333333;strokeOpacity=100;strokeWidth=0.8;rounded=1;arcSize=24;edgeStyle=orthogonalEdgeStyle;startArrow=none;endArrow=none;exitX=0.5;exitY=1.006;exitPerimeter=0;lucidId=Nv1w4CM6zkDg;" edge="1" parent="1" source="McNahyriQ4-GgeykA9PT-4">
          <mxGeometry width="100" height="100" relative="1" as="geometry">
            <Array as="points" />
            <mxPoint x="1514" y="283" as="targetPoint" />
          </mxGeometry>
        </mxCell>
        <mxCell id="McNahyriQ4-GgeykA9PT-34" value="Text" style="html=1;overflow=block;blockSpacing=1;whiteSpace=wrap;fontSize=13;fontColor=#333333;align=center;spacing=3.8;strokeColor=#333333;strokeOpacity=100;fillOpacity=100;rounded=1;absoluteArcSize=1;arcSize=12;fillColor=#ffffff;strokeWidth=0.8;lucidId=95exJpMJDFb~;" vertex="1" parent="1">
          <mxGeometry x="1335" y="1080" width="540" height="120" as="geometry" />
        </mxCell>
        <mxCell id="McNahyriQ4-GgeykA9PT-35" value="Relay" style="html=1;overflow=block;blockSpacing=1;whiteSpace=wrap;fontSize=13;fontColor=#333333;align=center;spacing=9;strokeColor=#333333;strokeOpacity=100;fillOpacity=100;rounded=1;absoluteArcSize=1;arcSize=12;fillColor=#ffffff;strokeWidth=0.8;lucidId=g6ex4FhziAm~;" vertex="1" parent="1">
          <mxGeometry x="1350" y="1095" width="90" height="90" as="geometry" />
        </mxCell>
        <mxCell id="McNahyriQ4-GgeykA9PT-36" value="Relay" style="html=1;overflow=block;blockSpacing=1;whiteSpace=wrap;fontSize=13;fontColor=#333333;align=center;spacing=9;strokeColor=#333333;strokeOpacity=100;fillOpacity=100;rounded=1;absoluteArcSize=1;arcSize=12;fillColor=#ffffff;strokeWidth=0.8;lucidId=r6excoQNQWk0;" vertex="1" parent="1">
          <mxGeometry x="1455" y="1095" width="90" height="90" as="geometry" />
        </mxCell>
        <mxCell id="McNahyriQ4-GgeykA9PT-37" value="Relay" style="html=1;overflow=block;blockSpacing=1;whiteSpace=wrap;fontSize=13;fontColor=#333333;align=center;spacing=9;strokeColor=#333333;strokeOpacity=100;fillOpacity=100;rounded=1;absoluteArcSize=1;arcSize=12;fillColor=#ffffff;strokeWidth=0.8;lucidId=u6exnf6T4~OS;" vertex="1" parent="1">
          <mxGeometry x="1560" y="1095" width="90" height="90" as="geometry" />
        </mxCell>
        <mxCell id="McNahyriQ4-GgeykA9PT-38" value="Relay" style="html=1;overflow=block;blockSpacing=1;whiteSpace=wrap;fontSize=13;fontColor=#333333;align=center;spacing=9;strokeColor=#333333;strokeOpacity=100;fillOpacity=100;rounded=1;absoluteArcSize=1;arcSize=12;fillColor=#ffffff;strokeWidth=0.8;lucidId=x6exvc6X7DAS;" vertex="1" parent="1">
          <mxGeometry x="1665" y="1095" width="90" height="90" as="geometry" />
        </mxCell>
        <mxCell id="McNahyriQ4-GgeykA9PT-39" value="Relay" style="html=1;overflow=block;blockSpacing=1;whiteSpace=wrap;fontSize=13;fontColor=#333333;align=center;spacing=9;strokeColor=#333333;strokeOpacity=100;fillOpacity=100;rounded=1;absoluteArcSize=1;arcSize=12;fillColor=#ffffff;strokeWidth=0.8;lucidId=A6excq5H-kju;" vertex="1" parent="1">
          <mxGeometry x="1770" y="1095" width="90" height="90" as="geometry" />
        </mxCell>
        <mxCell id="McNahyriQ4-GgeykA9PT-40" value="" style="html=1;jettySize=18;whiteSpace=wrap;fontSize=13;strokeColor=#333333;strokeOpacity=100;strokeWidth=0.8;rounded=1;arcSize=24;edgeStyle=orthogonalEdgeStyle;startArrow=none;endArrow=none;exitX=0.706;exitY=1.004;exitPerimeter=0;entryX=1.006;entryY=0.5;entryPerimeter=0;lucidId=W8exZNVjc~cK;" edge="1" parent="1" source="McNahyriQ4-GgeykA9PT-39" target="McNahyriQ4-GgeykA9PT-15">
          <mxGeometry width="100" height="100" relative="1" as="geometry">
            <Array as="points" />
          </mxGeometry>
        </mxCell>
        <mxCell id="McNahyriQ4-GgeykA9PT-41" value="" style="html=1;jettySize=18;whiteSpace=wrap;fontSize=13;strokeColor=#333333;strokeOpacity=100;strokeWidth=0.8;rounded=1;arcSize=24;edgeStyle=orthogonalEdgeStyle;startArrow=none;endArrow=none;exitX=0.672;exitY=1.004;exitPerimeter=0;entryX=1.006;entryY=0.5;entryPerimeter=0;lucidId=L9exTXyFx39S;" edge="1" parent="1" source="McNahyriQ4-GgeykA9PT-38" target="McNahyriQ4-GgeykA9PT-14">
          <mxGeometry width="100" height="100" relative="1" as="geometry">
            <Array as="points">
              <mxPoint x="1726" y="1215" />
              <mxPoint x="1725" y="1215" />
              <mxPoint x="1725" y="1230" />
              <mxPoint x="1943" y="1230" />
              <mxPoint x="1943" y="908" />
              <mxPoint x="1771" y="908" />
              <mxPoint x="1771" y="945" />
            </Array>
          </mxGeometry>
        </mxCell>
        <mxCell id="McNahyriQ4-GgeykA9PT-42" value="" style="html=1;jettySize=18;whiteSpace=wrap;fontSize=13;strokeColor=#333333;strokeOpacity=100;strokeWidth=0.8;rounded=1;arcSize=24;edgeStyle=orthogonalEdgeStyle;startArrow=none;endArrow=none;exitX=0.678;exitY=1.004;exitPerimeter=0;entryX=1.006;entryY=0.5;entryPerimeter=0;lucidId=69examvrNpbC;" edge="1" parent="1" source="McNahyriQ4-GgeykA9PT-37" target="McNahyriQ4-GgeykA9PT-13">
          <mxGeometry width="100" height="100" relative="1" as="geometry">
            <Array as="points">
              <mxPoint x="1621" y="1245" />
              <mxPoint x="1980" y="1245" />
              <mxPoint x="1980" y="893" />
              <mxPoint x="1651" y="893" />
              <mxPoint x="1651" y="945" />
            </Array>
          </mxGeometry>
        </mxCell>
        <mxCell id="McNahyriQ4-GgeykA9PT-43" value="" style="html=1;jettySize=18;whiteSpace=wrap;fontSize=13;strokeColor=#333333;strokeOpacity=100;strokeWidth=0.8;rounded=1;arcSize=24;edgeStyle=orthogonalEdgeStyle;startArrow=none;endArrow=none;exitX=0.671;exitY=1.004;exitPerimeter=0;entryX=1.006;entryY=0.5;entryPerimeter=0;lucidId=q-exNcUnwJR2;" edge="1" parent="1" source="McNahyriQ4-GgeykA9PT-36" target="McNahyriQ4-GgeykA9PT-12">
          <mxGeometry width="100" height="100" relative="1" as="geometry">
            <Array as="points">
              <mxPoint x="1515" y="1260" />
              <mxPoint x="2018" y="1260" />
              <mxPoint x="2018" y="878" />
              <mxPoint x="1531" y="878" />
              <mxPoint x="1531" y="945" />
            </Array>
          </mxGeometry>
        </mxCell>
        <mxCell id="McNahyriQ4-GgeykA9PT-44" value="" style="html=1;jettySize=18;whiteSpace=wrap;fontSize=13;strokeColor=#333333;strokeOpacity=100;strokeWidth=0.8;rounded=1;arcSize=24;edgeStyle=orthogonalEdgeStyle;startArrow=none;endArrow=none;exitX=1.006;exitY=0.5;exitPerimeter=0;entryX=0.706;entryY=1.004;entryPerimeter=0;lucidId=J-exwr-y-0SC;" edge="1" parent="1" source="McNahyriQ4-GgeykA9PT-11" target="McNahyriQ4-GgeykA9PT-35">
          <mxGeometry width="100" height="100" relative="1" as="geometry">
            <Array as="points">
              <mxPoint x="1411" y="945" />
              <mxPoint x="1411" y="863" />
              <mxPoint x="2055" y="863" />
              <mxPoint x="2055" y="1275" />
              <mxPoint x="1414" y="1275" />
            </Array>
          </mxGeometry>
        </mxCell>
        <mxCell id="McNahyriQ4-GgeykA9PT-45" value="" style="html=1;jettySize=18;whiteSpace=wrap;fontSize=13;strokeColor=#333333;strokeOpacity=100;strokeWidth=0.8;rounded=1;arcSize=24;edgeStyle=orthogonalEdgeStyle;jumpStyle=arc;startArrow=none;endArrow=none;exitX=-0.001;exitY=0.379;exitPerimeter=0;entryX=1;entryY=0.757;entryPerimeter=0;lucidId=f~exD46M~IQk;" edge="1" parent="1" source="McNahyriQ4-GgeykA9PT-34" target="McNahyriQ4-GgeykA9PT-2">
          <mxGeometry width="100" height="100" relative="1" as="geometry">
            <Array as="points" />
          </mxGeometry>
        </mxCell>
        <mxCell id="McNahyriQ4-GgeykA9PT-46" value="" style="html=1;jettySize=18;whiteSpace=wrap;fontSize=13;strokeColor=#333333;strokeOpacity=100;strokeWidth=0.8;rounded=1;arcSize=24;edgeStyle=orthogonalEdgeStyle;jumpStyle=arc;startArrow=none;endArrow=none;exitX=-0.001;exitY=0.5;exitPerimeter=0;entryX=1;entryY=0.803;entryPerimeter=0;lucidId=v~exi_wGpboj;" edge="1" parent="1" source="McNahyriQ4-GgeykA9PT-34" target="McNahyriQ4-GgeykA9PT-2">
          <mxGeometry width="100" height="100" relative="1" as="geometry">
            <Array as="points" />
          </mxGeometry>
        </mxCell>
        <mxCell id="McNahyriQ4-GgeykA9PT-47" value="" style="html=1;jettySize=18;whiteSpace=wrap;fontSize=13;strokeColor=#333333;strokeOpacity=100;strokeWidth=0.8;rounded=1;arcSize=24;edgeStyle=orthogonalEdgeStyle;jumpStyle=arc;startArrow=none;endArrow=none;exitX=-0.001;exitY=0.625;exitPerimeter=0;entryX=1;entryY=0.871;entryPerimeter=0;lucidId=K~exboPOm6W1;" edge="1" parent="1" source="McNahyriQ4-GgeykA9PT-34" target="McNahyriQ4-GgeykA9PT-2">
          <mxGeometry width="100" height="100" relative="1" as="geometry">
            <Array as="points" />
          </mxGeometry>
        </mxCell>
        <mxCell id="McNahyriQ4-GgeykA9PT-48" value="" style="html=1;jettySize=18;whiteSpace=wrap;fontSize=13;strokeColor=#333333;strokeOpacity=100;strokeWidth=0.8;rounded=1;arcSize=24;edgeStyle=orthogonalEdgeStyle;jumpStyle=arc;startArrow=none;endArrow=none;exitX=-0.001;exitY=0.762;exitPerimeter=0;entryX=1;entryY=0.851;entryPerimeter=0;lucidId=GefxeCkZ2CBo;" edge="1" parent="1" source="McNahyriQ4-GgeykA9PT-34" target="McNahyriQ4-GgeykA9PT-2">
          <mxGeometry width="100" height="100" relative="1" as="geometry">
            <Array as="points" />
          </mxGeometry>
        </mxCell>
        <mxCell id="McNahyriQ4-GgeykA9PT-49" value="" style="html=1;jettySize=18;whiteSpace=wrap;fontSize=13;strokeColor=#333333;strokeOpacity=100;strokeWidth=0.8;rounded=1;arcSize=24;edgeStyle=orthogonalEdgeStyle;jumpStyle=arc;startArrow=none;endArrow=none;exitX=-0.001;exitY=0.262;exitPerimeter=0;entryX=1;entryY=0.709;entryPerimeter=0;lucidId=~hfxhN_dy4kv;" edge="1" parent="1" source="McNahyriQ4-GgeykA9PT-34" target="McNahyriQ4-GgeykA9PT-2">
          <mxGeometry width="100" height="100" relative="1" as="geometry">
            <Array as="points" />
          </mxGeometry>
        </mxCell>
        <mxCell id="McNahyriQ4-GgeykA9PT-50" value="VCC" style="html=1;overflow=block;blockSpacing=1;whiteSpace=wrap;fontSize=13;fontColor=#333333;align=center;spacing=9;strokeColor=#333333;strokeOpacity=100;fillOpacity=100;rounded=1;absoluteArcSize=1;arcSize=12;fillColor=#ffffff;strokeWidth=0.8;lucidId=AjfxCqQkCTag;" vertex="1" parent="1">
          <mxGeometry x="1095" y="1200" width="60" height="30" as="geometry" />
        </mxCell>
        <mxCell id="McNahyriQ4-GgeykA9PT-51" value="" style="html=1;jettySize=18;whiteSpace=wrap;fontSize=13;strokeColor=#333333;strokeOpacity=100;strokeWidth=0.8;rounded=1;arcSize=24;edgeStyle=orthogonalEdgeStyle;startArrow=none;endArrow=none;exitX=1.006;exitY=0.5;exitPerimeter=0;entryX=0.317;entryY=1.004;entryPerimeter=0;lucidId=PjfxnhLUa-fT;" edge="1" parent="1" source="McNahyriQ4-GgeykA9PT-50" target="McNahyriQ4-GgeykA9PT-35">
          <mxGeometry width="100" height="100" relative="1" as="geometry">
            <Array as="points" />
          </mxGeometry>
        </mxCell>
        <mxCell id="McNahyriQ4-GgeykA9PT-52" value="" style="html=1;jettySize=18;whiteSpace=wrap;fontSize=13;strokeColor=#333333;strokeOpacity=100;strokeWidth=0.8;rounded=1;arcSize=24;edgeStyle=orthogonalEdgeStyle;jumpStyle=arc;startArrow=none;endArrow=none;exitX=0.5;exitY=1.004;exitPerimeter=0;entryX=1.006;entryY=0.5;entryPerimeter=0;lucidId=YjfxuDlaqdVm;" edge="1" parent="1" source="McNahyriQ4-GgeykA9PT-36" target="McNahyriQ4-GgeykA9PT-50">
          <mxGeometry width="100" height="100" relative="1" as="geometry">
            <Array as="points" />
          </mxGeometry>
        </mxCell>
        <mxCell id="McNahyriQ4-GgeykA9PT-53" value="" style="html=1;jettySize=18;whiteSpace=wrap;fontSize=13;strokeColor=#333333;strokeOpacity=100;strokeWidth=0.8;rounded=1;arcSize=24;edgeStyle=orthogonalEdgeStyle;jumpStyle=arc;startArrow=none;endArrow=none;exitX=0.292;exitY=1.004;exitPerimeter=0;entryX=1.006;entryY=0.5;entryPerimeter=0;lucidId=3jfxhT2Dwc~6;" edge="1" parent="1" source="McNahyriQ4-GgeykA9PT-37" target="McNahyriQ4-GgeykA9PT-50">
          <mxGeometry width="100" height="100" relative="1" as="geometry">
            <Array as="points" />
          </mxGeometry>
        </mxCell>
        <mxCell id="McNahyriQ4-GgeykA9PT-54" value="" style="html=1;jettySize=18;whiteSpace=wrap;fontSize=13;strokeColor=#333333;strokeOpacity=100;strokeWidth=0.8;rounded=1;arcSize=24;edgeStyle=orthogonalEdgeStyle;jumpStyle=arc;startArrow=none;endArrow=none;exitX=0.325;exitY=1.004;exitPerimeter=0;entryX=1.006;entryY=0.5;entryPerimeter=0;lucidId=7jfxZLJ6WkEp;" edge="1" parent="1" source="McNahyriQ4-GgeykA9PT-38" target="McNahyriQ4-GgeykA9PT-50">
          <mxGeometry width="100" height="100" relative="1" as="geometry">
            <Array as="points" />
          </mxGeometry>
        </mxCell>
        <mxCell id="McNahyriQ4-GgeykA9PT-55" value="" style="html=1;jettySize=18;whiteSpace=wrap;fontSize=13;strokeColor=#333333;strokeOpacity=100;strokeWidth=0.8;rounded=1;arcSize=24;edgeStyle=orthogonalEdgeStyle;jumpStyle=arc;startArrow=none;endArrow=none;exitX=0.317;exitY=1.004;exitPerimeter=0;entryX=1.006;entryY=0.5;entryPerimeter=0;lucidId=.jfxdOv.Jj~B;" edge="1" parent="1" source="McNahyriQ4-GgeykA9PT-39" target="McNahyriQ4-GgeykA9PT-50">
          <mxGeometry width="100" height="100" relative="1" as="geometry">
            <Array as="points" />
          </mxGeometry>
        </mxCell>
      </root>
    </mxGraphModel>
  </diagram>
</mxfile>
